#!OML:ASF H:\Dans Jumps\Project 1\Capture day 1\Session 1\subject.ASF
:FULLY-SPECIFIED
:DEGREES
220
root 0.197806 15.4043 -12.9644 30.3453 2.32127 -3.28659
lowerback 17.9647 1.0377 -1.175
upperback -0.34671 1.47294 3.23198
thorax -10.627 0.866296 3.82643
lowerneck -24.581 -0.825601 -2.43972
upperneck 7.83968 -0.392909 0.426434
head 6.2878 -0.233628 0.478288
rclavicle -9.54166e-015 -7.95139e-015
rhumerus -8.53941 -18.5375 -80.3377
rradius 22.8834
rwrist 40.3895
rhand -21.3827 -27.0216
rfingers 7.12502
rthumb 5.00483 -56.9425
lclavicle -9.54166e-015 -7.95139e-015
lhumerus -3.63798 30.74 84.4379
lradius 11.7557
lwrist -20.0481
lhand -27.4406 -8.42327
lfingers 7.12502
lthumb -0.845642 21.5548
rfemur -58.8618 -0.37456 26.0849
rtibia 66.309
rfoot -33.8727 -21.1186
rtoes -5.19103
lfemur -60.7341 4.48691 -17.565
ltibia 67.2074
lfoot -28.7409 21.9291
ltoes -20.0118
221
root 0.186274 15.3644 -12.8453 30.2342 2.28458 -3.37044
lowerback 17.8303 1.06062 -1.19651
upperback -0.513321 1.50008 3.20726
thorax -10.7389 0.883369 3.80601
lowerneck -24.7655 -0.832814 -2.47951
upperneck 7.93219 -0.395947 0.508089
head 6.34611 -0.229245 0.510805
rclavicle -1.05356e-014 -2.06736e-014
rhumerus -7.50188 -17.1051 -80.6278
rradius 23.7928
rwrist 39.7718
rhand -21.3442 -26.8002
rfingers 7.12502
rthumb 5.04198 -56.7202
lclavicle -1.05356e-014 -2.06736e-014
lhumerus -2.43447 28.5392 84.7065
lradius 12.531
lwrist -17.503
lhand -27.8484 -8.67967
lfingers 7.12502
lthumb -1.23945 21.2965
rfemur -58.3837 -0.532198 26.3143
rtibia 66.6309
rfoot -34.3671 -21.3756
rtoes -6.42705
lfemur -60.3387 4.99503 -17.5857
ltibia 67.6898
lfoot -29.2051 22.0796
ltoes -21.265
222
root 0.175026 15.3346 -12.718 30.1227 2.26828 -3.41063
lowerback 17.6304 1.06578 -1.24246
upperback -0.694208 1.49832 3.17814
thorax -10.8276 0.888019 3.80261
lowerneck -24.9236 -0.841273 -2.52984
upperneck 8.0425 -0.399872 0.602245
head 6.40646 -0.224538 0.549114
rclavicle 3.37934e-015 1.27222e-014
rhumerus -6.57092 -15.5251 -80.8083
rradius 24.7819
rwrist 39.019
rhand -21.311 -26.5876
rfingers 7.12502
rthumb 5.07404 -56.5069
lclavicle 3.37934e-015 1.27222e-014
lhumerus -1.40391 26.3031 84.7693
lradius 13.4033
lwrist -14.7109
lhand -28.1827 -8.97265
lfingers 7.12502
lthumb -1.56238 21.0014
rfemur -57.7858 -0.702924 26.4865
rtibia 66.7987
rfoot -34.849 -21.6132
rtoes -7.56451
lfemur -59.8091 5.44382 -17.6204
ltibia 67.9918
lfoot -29.6366 22.2379
ltoes -22.3834
223
root 0.16403 15.317 -12.5815 29.991 2.26418 -3.41066
lowerback 17.3838 1.05665 -1.31654
upperback -0.883992 1.47137 3.14357
thorax -10.8978 0.882207 3.81609
lowerneck -25.0621 -0.85123 -2.59005
upperneck 8.18302 -0.405485 0.711686
head 6.47397 -0.219674 0.593951
rclavicle -7.95139e-015 -3.81667e-014
rhumerus -5.74661 -13.8916 -80.8816
rradius 25.7993
rwrist 38.2478
rhand -21.313 -26.4554
rfingers 7.12502
rthumb 5.07215 -56.3747
lclavicle -7.95139e-015 -3.81667e-014
lhumerus -0.566122 24.0311 84.6327
lradius 14.3945
lwrist -11.6964
lhand -28.4059 -9.15875
lfingers 7.12502
lthumb -1.77789 20.8136
rfemur -57.0289 -0.888245 26.6039
rtibia 66.7851
rfoot -35.3043 -21.8264
rtoes -8.59108
lfemur -59.1073 5.84018 -17.6689
ltibia 68.0882
lfoot -30.0239 22.3922
ltoes -23.3795
224
root 0.153242 15.3129 -12.4348 29.8179 2.26412 -3.37041
lowerback 17.1105 1.03781 -1.42496
upperback -1.08103 1.42409 3.10254
thorax -10.9596 0.868706 3.84748
lowerneck -25.1758 -0.861006 -2.65004
upperneck 8.36875 -0.412089 0.823062
head 6.55285 -0.215329 0.639444
rclavicle -5.96354e-016 -3.57812e-015
rhumerus -5.04007 -12.2806 -80.853
rradius 26.7991
rwrist 37.538
rhand -21.3872 -26.4561
rfingers 7.12502
rthumb 5.0005 -56.3771
lclavicle -5.96354e-016 -3.57812e-015
lhumerus 0.0583329 21.7851 84.3106
lradius 15.494
lwrist -8.59604
lhand -28.5115 -9.254
lfingers 7.12502
lthumb -1.87994 20.7175
rfemur -56.075 -1.08712 26.6635
rtibia 66.5648
rfoot -35.7137 -22.0146
rtoes -9.48254
lfemur -58.2009 6.1948 -17.7352
ltibia 67.9603
lfoot -30.3409 22.5329
ltoes -24.2752
225
root 0.142706 15.3238 -12.2769 29.5767 2.25977 -3.29931
lowerback 16.8272 1.01227 -1.56698
upperback -1.27885 1.36097 3.05778
thorax -11.0155 0.849699 3.89799
lowerneck -25.2633 -0.868409 -2.707
upperneck 8.61853 -0.416402 0.926613
head 6.6491 -0.210885 0.682375
rclavicle 1.21259e-014 1.74931e-014
rhumerus -4.4477 -10.7791 -80.741
rradius 27.7003
rwrist 37.0124
rhand -21.5635 -26.5687
rfingers 7.12502
rthumb 4.83022 -56.4936
lclavicle 1.21259e-014 1.74931e-014
lhumerus 0.446356 19.5812 83.8198
lradius 16.6884
lwrist -5.54162
lhand -28.5299 -9.26119
lfingers 7.12502
lthumb -1.89773 20.7101
rfemur -54.8775 -1.30138 26.6719
rtibia 66.1093
rfoot -36.0636 -22.1648
rtoes -10.2359
lfemur -57.049 6.52771 -17.8139
ltibia 67.5918
lfoot -30.5889 22.6303
ltoes -25.0583
